C:\GBW_MyPrograms\KinderuniversiteitApp\Resultaten\Ellis\Olaf\Olaf_v3.mot
version=1
nRows=13
nColumns=29
inDegrees=yes
endheader
                time	         pelvis_tilt	           pelvis_tx	           pelvis_ty	       hip_flexion_l	       hip_flexion_r	        knee_angle_l	        knee_angle_r	       ankle_angle_l	       ankle_angle_r	    lumbar_extension	hamstrings_r/activation	bifemsh_r/activation	glut_max_r/activation	iliopsoas_r/activation	rect_fem_r/activation	  vasti_r/activation	gastroc_r/activation	 soleus_r/activation	tib_ant_r/activation	hamstrings_l/activation	bifemsh_l/activation	glut_max_l/activation	iliopsoas_l/activation	rect_fem_l/activation	  vasti_l/activation	gastroc_l/activation	 soleus_l/activation	tib_ant_l/activation	
          0.20000000	         -8.22362690	          0.24990811	          0.91249552	         13.78650293	         18.88977405	        -14.33490149	        -23.96712371	         11.14037893	         13.58690462	         -6.11139465	          0.09539271	          0.20340628	          0.89931683	          0.21910320	          0.98057038	          0.96451313	          0.19346610	          0.15850067	          0.94451502	          0.49109699	          0.86654966	          0.44930930	          0.85821279	          0.32710896	          0.42558322	          0.95996338	          0.81666725	          0.18331781	
          0.20200000	         -8.24835118	          0.24999774	          0.91250164	         13.85204281	         18.87367232	        -14.41314207	        -23.87456144	         11.11164586	         13.62648267	         -6.08134660	          0.09231578	          0.19684495	          0.91116169	          0.21203544	          0.98285549	          0.96868798	          0.18722534	          0.15338799	          0.91404770	          0.47561706	          0.88224702	          0.43481566	          0.87489227	          0.31655752	          0.41185480	          0.96466676	          0.79032382	          0.17740478	
          0.20400000	         -8.27738997	          0.25008529	          0.91249909	         13.93111952	         18.85181642	        -14.50876145	        -23.76347425	         11.09005371	         13.66383851	         -6.04600411	          0.08933814	          0.19049527	          0.92161306	          0.20519566	          0.98487170	          0.97237166	          0.18118590	          0.14844032	          0.88456286	          0.46028640	          0.89609691	          0.42078956	          0.88960914	          0.30634646	          0.39856923	          0.93355396	          0.76483007	          0.17168252	
          0.20600000	         -8.31076061	          0.25017082	          0.91248711	         14.02366907	         18.82443462	        -14.62160844	        -23.63433947	         11.07586069	         13.69792478	         -6.00534573	          0.08645661	          0.18435043	          0.93083486	          0.19857652	          0.98665063	          0.97562198	          0.17534128	          0.14365247	          0.85602901	          0.44544281	          0.90831600	          0.40721592	          0.90259413	          0.29646479	          0.38571223	          0.90344121	          0.74015863	          0.16614486	
          0.20800000	         -8.34832133	          0.25025441	          0.91246520	         14.12941783	         18.79159595	        -14.75147856	        -23.48767549	         11.06940360	         13.72840575	         -5.95954903	          0.08366809	          0.17840381	          0.93897175	          0.19217090	          0.98822018	          0.97848990	          0.16968521	          0.13901993	          0.82841552	          0.43107607	          0.91909384	          0.39408015	          0.91405065	          0.28690190	          0.37326997	          0.87429905	          0.71628298	          0.16078585	
          0.21000000	         -8.38932227	          0.25033621	          0.91243384	         14.24732950	         18.75266518	        -14.89794909	        -23.32388921	         11.07082928	         13.75421619	         -5.90953057	          0.08096962	          0.17264902	          0.94615136	          0.18597192	          0.98960498	          0.98102041	          0.16421161	          0.24030804	          0.80169274	          0.41717196	          0.88953139	          0.38136811	          0.92415694	          0.27764751	          0.36122908	          0.84609661	          0.69317746	          0.15559973	
          0.21200000	         -8.43270551	          0.28948311	          0.91239422	         14.37594918	         18.70666804	        -15.06038241	        -23.14304221	         11.07995926	         13.76720636	         -5.85659958	          0.07835833	          0.16707987	          0.95248631	          0.17997290	          0.99082675	          0.98325322	          0.15891458	          0.32968241	          0.77583195	          0.40371595	          0.86084636	          0.36906614	          0.92728703	          0.26869167	          0.34957660	          0.81880374	          0.67081724	          0.15058092	
          0.21400000	         -8.47724776	          0.30398547	          0.91234798	         14.51358974	         18.65245298	        -15.23800713	        -22.94495297	         11.09642562	         13.76004034	         -5.80227786	          0.07583148	          0.16169038	          0.95807597	          0.17416740	          0.99190463	          0.98522334	          0.15378843	          0.40854252	          0.75080536	          0.39069376	          0.83308143	          0.35716102	          0.89738017	          0.26002476	          0.33830002	          0.79239116	          0.64917828	          0.14572404	
          0.21600000	         -8.52187877	          0.31595680	          0.91229654	         14.65871245	         18.58910264	        -15.43002652	        -22.72969251	         11.11982800	         13.73197171	         -5.74789644	          0.07338655	          0.15647475	          0.96300803	          0.16854918	          0.99285552	          0.98696167	          0.14882766	          0.47812512	          0.72658607	          0.37809147	          0.80621049	          0.34563995	          0.86843497	          0.25163745	          0.32738720	          0.76683051	          0.62823731	          0.14102385	
          0.21800000	         -8.56568142	          0.32698516	          0.91224109	         14.80992902	         18.51597395	        -15.63561843	        -22.49781127	         11.14973694	         13.68636542	         -5.69459503	          0.07102132	          0.15142737	          0.96735984	          0.16311219	          0.99369432	          0.98849550	          0.14402692	          0.53952162	          0.70314803	          0.36589558	          0.78020559	          0.33449053	          0.84042259	          0.24352074	          0.31682641	          0.74209435	          0.60797184	          0.13647532	
          0.22000000	         -8.60762129	          0.33697763	          0.91218303	         14.96569873	         18.43239163	        -15.85390465	        -22.25030331	         11.18568201	         13.62804255	         -5.64365868	          0.06873531	          0.14654282	          0.97119968	          0.15785059	          0.99443417	          0.98984887	          0.13938105	          0.59369506	          0.68046605	          0.35409301	          0.75503913	          0.32370079	          0.81331342	          0.23566590	          0.30660629	          0.71815608	          0.58836007	          0.13207356	
          0.22200000	         -8.64648789	          0.34469339	          0.91212412	         15.12427123	         18.33757484	        -16.08395875	        -21.98849484	         11.22715086	         13.56176958	         -5.59659290	          0.08689813	          0.14181584	          0.97458776	          0.15275871	          0.99508664	          0.99104302	          0.13488507	          0.64149519	          0.65851574	          0.34267108	          0.73068421	          0.31325911	          0.78707848	          0.22806451	          0.29671586	          0.69498998	          0.56938092	          0.12781383	
          0.22400000	         -8.68120238	          0.34940905	          0.91206599	         15.28405325	         18.23100744	        -16.32488507	        -21.71407038	         11.27361410	         13.49175134	         -5.55473085	          0.19431650	          0.13724136	          0.97757725	          0.14783110	          0.99566188	          0.99209667	          0.13053413	          0.68367181	          0.63727350	          0.33161755	          0.70711475	          0.30315427	          0.76168967	          0.22070842	          0.28714449	          0.67257115	          0.55101397	          0.12369156	
